<?xml version="1.0" encoding="UTF-8"?>
<svg id="Layer_2" data-name="Layer 2" xmlns="http://www.w3.org/2000/svg" viewBox="0 0 43.8 45.04">
  <defs>
    <style>
      .cls-1 {
        fill: #231553;
        fill-rule: evenodd;
        stroke-width: 0px;
      }
    </style>
  </defs>
  <g id="Layer_1-2" data-name="Layer 1">
    <path class="cls-1" d="m24.8,41.01C10.5,38.61,3.9,30.11,3.9,22.31c0-7.8,6.5-16.2,20.9-18.3,1.1-.2,1.8-1.2,1.7-2.3-.2-1.1-1.2-1.8-2.3-1.7C8.5,2.41-.1,12.01,0,22.31,0,32.61,8.6,42.41,24.2,45.01c1.1.2,2.1-.6,2.3-1.6.1-1.2-.6-2.2-1.7-2.4Zm-10.9-8h10.8v-4.2h-2.7v-12.6h2.7v-4.2h-10.8v4.2h2.7v12.6h-2.7v4.2Zm18.2,0h5.4v-16.8h6.3v-4.2h-18v4.2h6.3v16.8Z"/>
  </g>
</svg>