<svg width="205" height="45" viewBox="0 0 205 45" fill="none" xmlns="http://www.w3.org/2000/svg">
<path fill-rule="evenodd" clip-rule="evenodd" d="M24.863 41.0275C10.5142 38.636 4.0049 30.1106 4 22.3115C3.99512 14.5335 10.4653 6.13016 24.8975 3.9784C25.99 3.81552 26.7436 2.79783 26.5807 1.70534C26.4179 0.612849 25.4002 -0.140749 24.3077 0.022135C8.55754 2.37038 -0.00648952 11.967 3.68962e-06 22.314C0.00648379 32.64 8.5542 42.3645 24.2054 44.9731C25.2949 45.1546 26.3254 44.4186 26.507 43.3291C26.6886 42.2395 25.9525 41.2091 24.863 41.0275ZM13.9 33.0003H24.7V28.8003H22V16.2003H24.7V12.0003H13.9V16.2003H16.6V28.8003H13.9V33.0003ZM32.1977 33.0003H37.5977V16.2003H43.8977V12.0003H25.8977V16.2003H32.1977V33.0003ZM67.8953 33.0003H73.2953V12.0003H67.8953V20.2503H60.3953V12.0003H54.9953V33.0003H60.3953V24.4503H67.8953V33.0003ZM86.5094 28.5003C85.1694 28.9003 83.9694 29.1003 82.9094 29.1003H82.1594C81.8594 29.1003 81.6094 29.0003 81.4094 28.8003C81.2094 28.6003 81.1094 28.3503 81.1094 28.0503V27.7503C81.1094 27.4503 81.2094 27.2003 81.4094 27.0003C81.6094 26.8003 81.8594 26.7003 82.1594 26.7003H86.5094V28.5003ZM87.2594 16.8003C84.3194 16.8003 81.0194 17.0003 77.3594 17.4003V21.1503C78.3194 21.0903 79.5794 21.0003 81.1394 20.8803C82.7194 20.7603 84.1594 20.7003 85.4594 20.7003C85.7594 20.7003 86.0094 20.8003 86.2094 21.0003C86.4094 21.2003 86.5094 21.4503 86.5094 21.7503V22.9503H80.3594C78.9994 22.9503 77.9094 23.3603 77.0894 24.1803C76.2694 25.0003 75.8594 26.0903 75.8594 27.4503V28.8003C75.8594 30.1603 76.2694 31.2503 77.0894 32.0703C77.9094 32.8903 78.9994 33.3003 80.3594 33.3003H81.4094C82.0894 33.3003 82.9194 33.1603 83.8994 32.8803C84.8994 32.5803 85.8694 32.1203 86.8094 31.5003L87.1094 33.0003H91.7594V21.3003C91.7594 19.9403 91.3494 18.8503 90.5294 18.0303C89.7094 17.2103 88.6194 16.8003 87.2594 16.8003ZM94.4512 33.0003H105.851C107.191 33.0003 108.271 32.6003 109.091 31.8003C109.931 31.0003 110.351 30.0003 110.351 28.8003C110.351 27.6003 110.021 26.6403 109.361 25.9203C108.721 25.2003 107.951 24.7603 107.051 24.6003C107.811 24.3803 108.401 23.9603 108.821 23.3403C109.241 22.7203 109.451 21.9203 109.451 20.9403C109.451 19.9603 109.031 19.0803 108.191 18.3003C107.371 17.5003 106.291 17.1003 104.951 17.1003H94.4512V33.0003ZM104.801 27.1503C105.001 27.3503 105.101 27.6003 105.101 27.9003V28.3503C105.101 28.6503 105.001 28.9003 104.801 29.1003C104.601 29.3003 104.351 29.4003 104.051 29.4003H99.7012V26.8503H104.051C104.351 26.8503 104.601 26.9503 104.801 27.1503ZM103.901 21.0003C104.101 21.2003 104.201 21.4503 104.201 21.7503V22.3503C104.201 22.6503 104.101 22.9003 103.901 23.1003C103.701 23.3003 103.451 23.4003 103.151 23.4003H99.7012V20.7003H103.151C103.451 20.7003 103.701 20.8003 103.901 21.0003ZM119.039 33.0003V17.7003H111.539V21.7503H113.789V33.0003H119.039ZM119.039 11.7003H113.789V15.9003H119.039V11.7003ZM134.949 21.1503V17.1003H122.049V33.0003H127.299V21.1503H134.949ZM145.748 28.5003C144.408 28.9003 143.208 29.1003 142.148 29.1003H141.398C141.098 29.1003 140.848 29.0003 140.648 28.8003C140.448 28.6003 140.348 28.3503 140.348 28.0503V27.7503C140.348 27.4503 140.448 27.2003 140.648 27.0003C140.848 26.8003 141.098 26.7003 141.398 26.7003H145.748V28.5003ZM146.498 16.8003C143.558 16.8003 140.258 17.0003 136.598 17.4003V21.1503C137.558 21.0903 138.818 21.0003 140.378 20.8803C141.958 20.7603 143.398 20.7003 144.698 20.7003C144.998 20.7003 145.248 20.8003 145.448 21.0003C145.648 21.2003 145.748 21.4503 145.748 21.7503V22.9503H139.598C138.238 22.9503 137.148 23.3603 136.328 24.1803C135.508 25.0003 135.098 26.0903 135.098 27.4503V28.8003C135.098 30.1603 135.508 31.2503 136.328 32.0703C137.148 32.8903 138.238 33.3003 139.598 33.3003H140.648C141.328 33.3003 142.158 33.1603 143.138 32.8803C144.138 32.5803 145.108 32.1203 146.048 31.5003L146.348 33.0003H150.998V21.3003C150.998 19.9403 150.588 18.8503 149.768 18.0303C148.948 17.2103 147.858 16.8003 146.498 16.8003ZM162.689 33.0003V21.1503H167.639V17.1003H152.489V21.1503H157.439V33.0003H162.689ZM184.361 32.0403C185.221 31.1803 185.651 30.0003 185.651 28.5003V21.6003C185.651 20.1003 185.221 18.9303 184.361 18.0903C183.521 17.2303 182.351 16.8003 180.851 16.8003H173.951C172.451 16.8003 171.271 17.2303 170.411 18.0903C169.571 18.9303 169.151 20.1003 169.151 21.6003V28.5003C169.151 30.0003 169.571 31.1803 170.411 32.0403C171.271 32.8803 172.451 33.3003 173.951 33.3003H180.851C182.351 33.3003 183.521 32.8803 184.361 32.0403ZM175.601 20.8503H179.201C180.001 20.8503 180.401 21.2503 180.401 22.0503V28.0503C180.401 28.8503 180.001 29.2503 179.201 29.2503H175.601C174.801 29.2503 174.401 28.8503 174.401 28.0503V22.0503C174.401 21.2503 174.801 20.8503 175.601 20.8503ZM193.598 21.7503C194.938 21.3503 196.138 21.1503 197.198 21.1503H198.248C198.548 21.1503 198.798 21.2503 198.998 21.4503C199.198 21.6503 199.298 21.9003 199.298 22.2003V27.7503C199.298 28.5503 198.898 28.9503 198.098 28.9503H193.598V21.7503ZM193.598 38.1003V33.0003H199.748C201.248 33.0003 202.418 32.5803 203.258 31.7403C204.118 30.8803 204.548 29.7003 204.548 28.2003V21.3003C204.548 19.9403 204.138 18.8503 203.318 18.0303C202.498 17.2103 201.408 16.8003 200.048 16.8003H198.698C198.018 16.8003 197.178 16.9503 196.178 17.2503C195.198 17.5303 194.238 17.9803 193.298 18.6003L192.998 17.1003H188.348V38.1003H193.598Z" fill="white"/>
</svg>
