<?xml version="1.0" encoding="utf-8"?>
<!-- Generator: Adobe Illustrator 28.0.0, SVG Export Plug-In . SVG Version: 6.00 Build 0)  -->
<svg version="1.1" id="Layer_1" xmlns="http://www.w3.org/2000/svg" xmlns:xlink="http://www.w3.org/1999/xlink" x="0px" y="0px"
	 viewBox="0 0 43.8 45" style="enable-background:new 0 0 43.8 45;" xml:space="preserve">
<style type="text/css">
	.st0{fill-rule:evenodd;clip-rule:evenodd;fill:#231553;}
</style>
<path class="st0" d="M24.8,41C10.5,38.6,3.9,30.1,3.9,22.3c0-7.8,6.5-16.2,20.9-18.3c1.1-0.2,1.8-1.2,1.7-2.3
	c-0.2-1.1-1.2-1.8-2.3-1.7C8.5,2.4-0.1,12,0,22.3C0,32.6,8.6,42.4,24.2,45c1.1,0.2,2.1-0.6,2.3-1.6C26.6,42.2,25.9,41.2,24.8,41z
	 M13.9,33h10.8v-4.2H22V16.2h2.7V12H13.9v4.2h2.7v12.6h-2.7V33z M32.1,33h5.4V16.2h6.3V12h-18v4.2h6.3V33z"/>
</svg>
